<?xml version="1.0" encoding="UTF-8"?>
<svg width="114px" height="20px" viewBox="0 0 57 10" version="1.1" xmlns="http://www.w3.org/2000/svg" xmlns:xlink="http://www.w3.org/1999/xlink">
    <!-- Generator: Sketch 48.2 (47327) - http://www.bohemiancoding.com/sketch -->
    <title>Artboard</title>
    <desc>Created with Sketch.</desc>
    <defs></defs>
    <g id="Page-1" stroke="none" stroke-width="1" fill="none" fill-rule="evenodd">
        <g id="Artboard" fill="#242424">
            <path d="M8.718,10 L6,10 L2.4,5.374 L2.346,5.374 L2.346,10 L0.239999997,10 L0.239999997,0.136 L2.346,0.136 L2.346,4.438 L2.4,4.438 L5.802,0.136 L8.376,0.136 L4.398,4.816 L8.718,10 Z M12.174,1.936 L12.174,4.096 L16.89,4.096 L16.89,5.878 L12.174,5.878 L12.174,8.2 L17.34,8.2 L17.34,10 L10.068,10 L10.068,0.136 L17.232,0.136 L17.232,1.936 L12.174,1.936 Z M21.732,1.936 L21.732,4.096 L26.448,4.096 L26.448,5.878 L21.732,5.878 L21.732,8.2 L26.898,8.2 L26.898,10 L19.626,10 L19.626,0.136 L26.79,0.136 L26.79,1.936 L21.732,1.936 Z M33.09,0.136 C34.3500063,0.136 35.3099967,0.42699709 35.97,1.009 C36.6300033,1.59100291 36.96,2.3919949 36.96,3.412 C36.96,4.42000504 36.6300033,5.21199712 35.97,5.788 C35.3099967,6.36400288 34.3500063,6.652 33.09,6.652 L31.29,6.652 L31.29,10 L29.184,10 L29.184,0.136 L33.09,0.136 Z M31.29,4.906 L32.856,4.906 C33.5040032,4.906 33.9899984,4.77700129 34.314,4.519 C34.6380016,4.26099871 34.8,3.88600246 34.8,3.394 C34.8,2.39799502 34.1460065,1.9 32.838,1.9 L31.29,1.9 L31.29,4.906 Z M40.956,1.936 L40.956,4.096 L45.672,4.096 L45.672,5.878 L40.956,5.878 L40.956,8.2 L46.122,8.2 L46.122,10 L38.85,10 L38.85,0.136 L46.014,0.136 L46.014,1.936 L40.956,1.936 Z M52.26,0.136 C54.7680125,0.136 56.022,1.05999076 56.022,2.908 C56.022,3.508003 55.8540017,4.02399784 55.518,4.456 C55.1819983,4.88800216 54.7200029,5.18199922 54.132,5.338 L54.132,5.374 C54.4920018,5.4940006 54.773999,5.68899865 54.978,5.959 C55.182001,6.22900135 55.4099987,6.68199682 55.662,7.318 L56.688,10 L54.42,10 L53.592,7.66 C53.399999,7.13199736 53.1720013,6.76600102 52.908,6.562 C52.6439987,6.35799898 52.2600025,6.256 51.756,6.256 L50.514,6.256 L50.514,10 L48.408,10 L48.408,0.136 L52.26,0.136 Z M50.514,4.618 L52.062,4.618 C53.2860061,4.618 53.898,4.13200486 53.898,3.16 C53.898,2.2599955 53.2620064,1.81 51.99,1.81 L50.514,1.81 L50.514,4.618 Z" id="keeper"></path>
        </g>
    </g>
</svg>